<svg xmlns="http://www.w3.org/2000/svg" width="1440" height="900"><path d="M731,456L685,389L706,459Z" fill="#7ec97b" stroke="#7ec97b" stroke-width="1.51"/><path d="M731,456L791,421L685,389Z" fill="#7dc87a" stroke="#7dc87a" stroke-width="1.51"/><path d="M791,421L750,283L685,389Z" fill="#8ace7f" stroke="#8ace7f" stroke-width="1.51"/><path d="M750,283L690,304L685,389Z" fill="#97d385" stroke="#97d385" stroke-width="1.51"/><path d="M685,389L605,478L706,459Z" fill="#83cb7c" stroke="#83cb7c" stroke-width="1.51"/><path d="M706,459L729,550L731,456Z" fill="#6fc174" stroke="#6fc174" stroke-width="1.51"/><path d="M583,394L605,478L685,389Z" fill="#8ecf81" stroke="#8ecf81" stroke-width="1.51"/><path d="M659,564L729,550L706,459Z" fill="#6bbe71" stroke="#6bbe71" stroke-width="1.51"/><path d="M731,456L836,473L791,421Z" fill="#6fc174" stroke="#6fc174" stroke-width="1.51"/><path d="M791,421L836,473L822,389Z" fill="#70c273" stroke="#70c273" stroke-width="1.51"/><path d="M609,310L583,394L685,389Z" fill="#9bd586" stroke="#9bd586" stroke-width="1.51"/><path d="M729,550L836,473L731,456Z" fill="#68be70" stroke="#68be70" stroke-width="1.51"/><path d="M822,389L750,283L791,421Z" fill="#84ca7b" stroke="#84ca7b" stroke-width="1.51"/><path d="M690,304L609,310L685,389Z" fill="#9cd687" stroke="#9cd687" stroke-width="1.51"/><path d="M704,253L609,310L690,304Z" fill="#a4d98b" stroke="#a4d98b" stroke-width="1.51"/><path d="M605,478L659,564L706,459Z" fill="#77c476" stroke="#77c476" stroke-width="1.51"/><path d="M822,389L864,349L750,283Z" fill="#86ca7c" stroke="#86ca7c" stroke-width="1.51"/><path d="M952,459L864,349L822,389Z" fill="#6fbf71" stroke="#6fbf71" stroke-width="1.51"/><path d="M750,283L704,253L690,304Z" fill="#a0d789" stroke="#a0d789" stroke-width="1.51"/><path d="M785,197L704,253L750,283Z" fill="#a2d88a" stroke="#a2d88a" stroke-width="1.51"/><path d="M609,310L531,355L583,394Z" fill="#a5da8a" stroke="#a5da8a" stroke-width="1.51"/><path d="M583,394L494,458L605,478Z" fill="#91d183" stroke="#91d183" stroke-width="1.51"/><path d="M569,246L531,355L609,310Z" fill="#b0de8f" stroke="#b0de8f" stroke-width="1.51"/><path d="M605,478L601,579L659,564Z" fill="#73c173" stroke="#73c173" stroke-width="1.51"/><path d="M833,670L864,553L729,550Z" fill="#4dad60" stroke="#4dad60" stroke-width="1.51"/><path d="M494,458L601,579L605,478Z" fill="#83ca7b" stroke="#83ca7b" stroke-width="1.51"/><path d="M729,550L864,553L836,473Z" fill="#5ab668" stroke="#5ab668" stroke-width="1.51"/><path d="M975,376L903,328L864,349Z" fill="#76c173" stroke="#76c173" stroke-width="1.51"/><path d="M684,633L729,550L659,564Z" fill="#61b76a" stroke="#61b76a" stroke-width="1.51"/><path d="M864,349L810,211L750,283Z" fill="#93d081" stroke="#93d081" stroke-width="1.51"/><path d="M952,459L822,389L836,473Z" fill="#65bb6e" stroke="#65bb6e" stroke-width="1.51"/><path d="M601,579L684,633L659,564Z" fill="#66b86b" stroke="#66b86b" stroke-width="1.51"/><path d="M483,411L494,458L583,394Z" fill="#9cd687" stroke="#9cd687" stroke-width="1.51"/><path d="M704,253L569,246L609,310Z" fill="#aedd8f" stroke="#aedd8f" stroke-width="1.51"/><path d="M531,355L483,411L583,394Z" fill="#a3d98a" stroke="#a3d98a" stroke-width="1.51"/><path d="M903,328L810,211L864,349Z" fill="#89cb7c" stroke="#89cb7c" stroke-width="1.51"/><path d="M704,253L649,171L569,246Z" fill="#b5e092" stroke="#b5e092" stroke-width="1.51"/><path d="M450,340L483,411L531,355Z" fill="#addd8e" stroke="#addd8e" stroke-width="1.51"/><path d="M810,211L785,197L750,283Z" fill="#a0d688" stroke="#a0d688" stroke-width="1.51"/><path d="M864,553L952,459L836,473Z" fill="#55b466" stroke="#55b466" stroke-width="1.51"/><path d="M727,117L649,171L704,253Z" fill="#b3df94" stroke="#b3df94" stroke-width="1.51"/><path d="M864,553L900,598L952,459Z" fill="#48ad5f" stroke="#48ad5f" stroke-width="1.51"/><path d="M833,670L900,598L864,553Z" fill="#41a55a" stroke="#41a55a" stroke-width="1.51"/><path d="M903,328L957,209L810,211Z" fill="#8fcc7e" stroke="#8fcc7e" stroke-width="1.51"/><path d="M952,459L975,376L864,349Z" fill="#6aba6e" stroke="#6aba6e" stroke-width="1.51"/><path d="M569,246L518,239L531,355Z" fill="#b9e293" stroke="#b9e293" stroke-width="1.51"/><path d="M535,169L518,239L569,246Z" fill="#c4e799" stroke="#c4e799" stroke-width="1.51"/><path d="M494,458L499,613L601,579Z" fill="#7fc677" stroke="#7fc677" stroke-width="1.51"/><path d="M483,411L451,470L494,458Z" fill="#9cd687" stroke="#9cd687" stroke-width="1.51"/><path d="M399,385L451,470L483,411Z" fill="#a5da8b" stroke="#a5da8b" stroke-width="1.51"/><path d="M518,239L450,340L531,355Z" fill="#b7e193" stroke="#b7e193" stroke-width="1.51"/><path d="M780,699L833,670L729,550Z" fill="#4ba65d" stroke="#4ba65d" stroke-width="1.51"/><path d="M601,579L564,654L684,633Z" fill="#67b469" stroke="#67b469" stroke-width="1.51"/><path d="M684,633L780,699L729,550Z" fill="#54ac62" stroke="#54ac62" stroke-width="1.51"/><path d="M499,613L564,654L601,579Z" fill="#72b96e" stroke="#72b96e" stroke-width="1.51"/><path d="M975,376L988,334L903,328Z" fill="#74bd70" stroke="#74bd70" stroke-width="1.51"/><path d="M1055,422L988,334L975,376Z" fill="#69b469" stroke="#69b469" stroke-width="1.51"/><path d="M770,772L780,699L654,778Z" fill="#469a58" stroke="#469a58" stroke-width="1.51"/><path d="M451,470L499,613L494,458Z" fill="#8ccd7f" stroke="#8ccd7f" stroke-width="1.51"/><path d="M785,197L727,117L704,253Z" fill="#acdc90" stroke="#acdc90" stroke-width="1.51"/><path d="M649,171L572,151L569,246Z" fill="#c0e598" stroke="#c0e598" stroke-width="1.51"/><path d="M820,93L727,117L785,197Z" fill="#aedc91" stroke="#aedc91" stroke-width="1.51"/><path d="M820,93L785,197L810,211Z" fill="#a6d88c" stroke="#a6d88c" stroke-width="1.51"/><path d="M518,239L450,224L450,340Z" fill="#c3e798" stroke="#c3e798" stroke-width="1.51"/><path d="M562,76L572,151L649,171Z" fill="#c8e89e" stroke="#c8e89e" stroke-width="1.51"/><path d="M572,151L535,169L569,246Z" fill="#c6e89b" stroke="#c6e89b" stroke-width="1.51"/><path d="M450,340L399,385L483,411Z" fill="#b0de8f" stroke="#b0de8f" stroke-width="1.51"/><path d="M434,600L481,645L499,613Z" fill="#7cbd72" stroke="#7cbd72" stroke-width="1.51"/><path d="M359,293L399,385L450,340Z" fill="#bee596" stroke="#bee596" stroke-width="1.51"/><path d="M988,334L957,209L903,328Z" fill="#81c276" stroke="#81c276" stroke-width="1.51"/><path d="M952,459L1055,422L975,376Z" fill="#5fb167" stroke="#5fb167" stroke-width="1.51"/><path d="M988,334L1027,235L957,209Z" fill="#84c075" stroke="#84c075" stroke-width="1.51"/><path d="M1017,589L1028,495L952,459Z" fill="#46a65c" stroke="#46a65c" stroke-width="1.51"/><path d="M1017,589L952,459L900,598Z" fill="#41a65a" stroke="#41a65a" stroke-width="1.51"/><path d="M499,613L481,645L564,654Z" fill="#74b86e" stroke="#74b86e" stroke-width="1.51"/><path d="M654,778L780,699L684,633Z" fill="#4fa25d" stroke="#4fa25d" stroke-width="1.51"/><path d="M434,600L499,613L451,470Z" fill="#85c879" stroke="#85c879" stroke-width="1.51"/><path d="M535,169L450,224L518,239Z" fill="#caea9c" stroke="#caea9c" stroke-width="1.51"/><path d="M361,563L434,600L451,470Z" fill="#8fcd7e" stroke="#8fcd7e" stroke-width="1.51"/><path d="M833,670L973,632L900,598Z" fill="#389e54" stroke="#389e54" stroke-width="1.51"/><path d="M911,751L973,632L833,670Z" fill="#31964f" stroke="#31964f" stroke-width="1.51"/><path d="M957,209L905,136L810,211Z" fill="#99d084" stroke="#99d084" stroke-width="1.51"/><path d="M1028,495L1055,422L952,459Z" fill="#53ab62" stroke="#53ab62" stroke-width="1.51"/><path d="M872,110L820,93L810,211Z" fill="#a7d78d" stroke="#a7d78d" stroke-width="1.51"/><path d="M648,30L562,76L649,171Z" fill="#c8e8a3" stroke="#c8e8a3" stroke-width="1.51"/><path d="M905,136L872,110L810,211Z" fill="#a1d589" stroke="#a1d589" stroke-width="1.51"/><path d="M973,632L1017,589L900,598Z" fill="#379c53" stroke="#379c53" stroke-width="1.51"/><path d="M1106,507L1106,420L1055,422Z" fill="#50a45d" stroke="#50a45d" stroke-width="1.51"/><path d="M654,778L684,633L601,769Z" fill="#57a25e" stroke="#57a25e" stroke-width="1.51"/><path d="M780,699L832,779L833,670Z" fill="#3d9854" stroke="#3d9854" stroke-width="1.51"/><path d="M957,209L986,110L905,136Z" fill="#98cc82" stroke="#98cc82" stroke-width="1.51"/><path d="M1091,241L1027,235L988,334Z" fill="#7ebb71" stroke="#7ebb71" stroke-width="1.51"/><path d="M601,769L684,633L564,654Z" fill="#60a963" stroke="#60a963" stroke-width="1.51"/><path d="M529,757L564,654L481,645Z" fill="#6daf68" stroke="#6daf68" stroke-width="1.51"/><path d="M529,757L601,769L564,654Z" fill="#64a863" stroke="#64a863" stroke-width="1.51"/><path d="M535,169L423,162L450,224Z" fill="#d1eca0" stroke="#d1eca0" stroke-width="1.51"/><path d="M572,151L562,76L535,169Z" fill="#cdeba0" stroke="#cdeba0" stroke-width="1.51"/><path d="M648,30L649,171L727,117Z" fill="#c0e49d" stroke="#c0e49d" stroke-width="1.51"/><path d="M820,93L746,45L727,117Z" fill="#b4de9a" stroke="#b4de9a" stroke-width="1.51"/><path d="M863,-13L746,45L820,93Z" fill="#b0dc9f" stroke="#b0dc9f" stroke-width="1.51"/><path d="M450,224L359,293L450,340Z" fill="#c6e89a" stroke="#c6e89a" stroke-width="1.51"/><path d="M319,503L361,563L451,470Z" fill="#9ad385" stroke="#9ad385" stroke-width="1.51"/><path d="M343,230L359,293L450,224Z" fill="#d2ed9f" stroke="#d2ed9f" stroke-width="1.51"/><path d="M770,772L832,779L780,699Z" fill="#3d9553" stroke="#3d9553" stroke-width="1.51"/><path d="M973,632L1044,652L1017,589Z" fill="#30944e" stroke="#30944e" stroke-width="1.51"/><path d="M749,811L832,779L770,772Z" fill="#3b9152" stroke="#3b9152" stroke-width="1.51"/><path d="M429,742L529,757L481,645Z" fill="#70ae68" stroke="#70ae68" stroke-width="1.51"/><path d="M319,503L451,470L399,385Z" fill="#a6d98c" stroke="#a6d98c" stroke-width="1.51"/><path d="M406,679L481,645L434,600Z" fill="#7dbb71" stroke="#7dbb71" stroke-width="1.51"/><path d="M641,872L749,811L654,778Z" fill="#499357" stroke="#499357" stroke-width="1.51"/><path d="M832,779L911,751L833,670Z" fill="#349250" stroke="#349250" stroke-width="1.51"/><path d="M422,70L423,162L535,169Z" fill="#d9f0a6" stroke="#d9f0a6" stroke-width="1.51"/><path d="M1055,422L1139,309L988,334Z" fill="#6ab068" stroke="#6ab068" stroke-width="1.51"/><path d="M1106,507L1055,422L1028,495Z" fill="#4ba45c" stroke="#4ba45c" stroke-width="1.51"/><path d="M746,45L648,30L727,117Z" fill="#bde3a2" stroke="#bde3a2" stroke-width="1.51"/><path d="M654,778L749,811L770,772Z" fill="#449556" stroke="#449556" stroke-width="1.51"/><path d="M963,832L993,785L911,751Z" fill="#208246" stroke="#208246" stroke-width="1.51"/><path d="M586,808L654,778L601,769Z" fill="#569d5d" stroke="#569d5d" stroke-width="1.51"/><path d="M359,293L321,381L399,385Z" fill="#c0e597" stroke="#c0e597" stroke-width="1.51"/><path d="M1017,589L1106,507L1028,495Z" fill="#3e9e56" stroke="#3e9e56" stroke-width="1.51"/><path d="M1086,612L1106,507L1017,589Z" fill="#32974f" stroke="#32974f" stroke-width="1.51"/><path d="M361,671L406,679L434,600Z" fill="#81bc72" stroke="#81bc72" stroke-width="1.51"/><path d="M321,381L319,503L399,385Z" fill="#b1df91" stroke="#b1df91" stroke-width="1.51"/><path d="M361,563L361,671L434,600Z" fill="#88c378" stroke="#88c378" stroke-width="1.51"/><path d="M993,785L1044,652L973,632Z" fill="#288a47" stroke="#288a47" stroke-width="1.51"/><path d="M529,757L586,808L601,769Z" fill="#5da05f" stroke="#5da05f" stroke-width="1.51"/><path d="M468,821L586,808L529,757Z" fill="#62a061" stroke="#62a061" stroke-width="1.51"/><path d="M1027,235L986,110L957,209Z" fill="#90c57c" stroke="#90c57c" stroke-width="1.51"/><path d="M905,136L966,30L872,110Z" fill="#a1d38d" stroke="#a1d38d" stroke-width="1.51"/><path d="M872,110L863,-13L820,93Z" fill="#aad897" stroke="#aad897" stroke-width="1.51"/><path d="M1075,134L986,110L1027,235Z" fill="#90c37b" stroke="#90c37b" stroke-width="1.51"/><path d="M212,306L233,370L321,381Z" fill="#c8e99d" stroke="#c8e99d" stroke-width="1.51"/><path d="M423,162L343,230L450,224Z" fill="#d6efa2" stroke="#d6efa2" stroke-width="1.51"/><path d="M1139,309L1091,241L988,334Z" fill="#76b46c" stroke="#76b46c" stroke-width="1.51"/><path d="M1044,652L1086,612L1017,589Z" fill="#2e914b" stroke="#2e914b" stroke-width="1.51"/><path d="M562,76L422,70L535,169Z" fill="#d7efa7" stroke="#d7efa7" stroke-width="1.51"/><path d="M423,162L312,159L343,230Z" fill="#dff2a7" stroke="#dff2a7" stroke-width="1.51"/><path d="M611,-19L536,31L562,76Z" fill="#d1ecb2" stroke="#d1ecb2" stroke-width="1.51"/><path d="M406,679L429,742L481,645Z" fill="#78b46d" stroke="#78b46d" stroke-width="1.51"/><path d="M335,751L429,742L406,679Z" fill="#7bb16d" stroke="#7bb16d" stroke-width="1.51"/><path d="M278,700L361,671L361,563Z" fill="#89c077" stroke="#89c077" stroke-width="1.51"/><path d="M1164,424L1139,309L1106,420Z" fill="#5da661" stroke="#5da661" stroke-width="1.51"/><path d="M1106,420L1139,309L1055,422Z" fill="#60aa63" stroke="#60aa63" stroke-width="1.51"/><path d="M648,30L611,-19L562,76Z" fill="#cce9b0" stroke="#cce9b0" stroke-width="1.51"/><path d="M746,45L656,-27L648,30Z" fill="#c2e5ad" stroke="#c2e5ad" stroke-width="1.51"/><path d="M772,-52L656,-27L746,45Z" fill="#bce2ae" stroke="#bce2ae" stroke-width="1.51"/><path d="M656,-27L611,-19L648,30Z" fill="#c9e8b3" stroke="#c9e8b3" stroke-width="1.51"/><path d="M1175,465L1164,424L1106,420Z" fill="#4fa05c" stroke="#4fa05c" stroke-width="1.51"/><path d="M1175,465L1106,420L1106,507Z" fill="#4a9f5a" stroke="#4a9f5a" stroke-width="1.51"/><path d="M536,31L422,70L562,76Z" fill="#d8efb0" stroke="#d8efb0" stroke-width="1.51"/><path d="M496,-19L422,70L536,31Z" fill="#dcf1b7" stroke="#dcf1b7" stroke-width="1.51"/><path d="M966,30L863,-13L872,110Z" fill="#a4d597" stroke="#a4d597" stroke-width="1.51"/><path d="M586,808L641,872L654,778Z" fill="#52965a" stroke="#52965a" stroke-width="1.51"/><path d="M859,872L911,751L832,779Z" fill="#2b894b" stroke="#2b894b" stroke-width="1.51"/><path d="M552,891L641,872L586,808Z" fill="#559259" stroke="#559259" stroke-width="1.51"/><path d="M986,110L966,30L905,136Z" fill="#9ece89" stroke="#9ece89" stroke-width="1.51"/><path d="M1091,241L1075,134L1027,235Z" fill="#88bc74" stroke="#88bc74" stroke-width="1.51"/><path d="M1195,156L1075,134L1091,241Z" fill="#87b974" stroke="#87b974" stroke-width="1.51"/><path d="M1044,652L1137,656L1086,612Z" fill="#288946" stroke="#288946" stroke-width="1.51"/><path d="M911,751L993,785L973,632Z" fill="#288b49" stroke="#288b49" stroke-width="1.51"/><path d="M859,872L832,779L749,811Z" fill="#34894e" stroke="#34894e" stroke-width="1.51"/><path d="M1045,69L966,30L986,110Z" fill="#9bc98a" stroke="#9bc98a" stroke-width="1.51"/><path d="M1164,424L1196,336L1139,309Z" fill="#62a662" stroke="#62a662" stroke-width="1.51"/><path d="M1183,605L1175,465L1106,507Z" fill="#389552" stroke="#389552" stroke-width="1.51"/><path d="M1183,605L1106,507L1086,612Z" fill="#2e924d" stroke="#2e924d" stroke-width="1.51"/><path d="M429,742L468,821L529,757Z" fill="#6ba665" stroke="#6ba665" stroke-width="1.51"/><path d="M454,843L468,821L429,742Z" fill="#6ba364" stroke="#6ba364" stroke-width="1.51"/><path d="M846,-79L772,-52L863,-13Z" fill="#afdba5" stroke="#afdba5" stroke-width="1.51"/><path d="M863,-13L772,-52L746,45Z" fill="#b3dda8" stroke="#b3dda8" stroke-width="1.51"/><path d="M598,-150L496,-19L611,-19Z" fill="#d2ecb8" stroke="#d2ecb8" stroke-width="1.51"/><path d="M735,948L859,872L749,811Z" fill="#37824c" stroke="#37824c" stroke-width="1.51"/><path d="M422,70L312,159L423,162Z" fill="#e3f4aa" stroke="#e3f4aa" stroke-width="1.51"/><path d="M212,306L321,381L359,293Z" fill="#caea9d" stroke="#caea9d" stroke-width="1.51"/><path d="M207,475L250,544L319,503Z" fill="#a6d88c" stroke="#a6d88c" stroke-width="1.51"/><path d="M319,503L250,544L361,563Z" fill="#9bd285" stroke="#9bd285" stroke-width="1.51"/><path d="M364,848L454,843L429,742Z" fill="#6fa366" stroke="#6fa366" stroke-width="1.51"/><path d="M207,475L319,503L321,381Z" fill="#b0dd92" stroke="#b0dd92" stroke-width="1.51"/><path d="M1075,134L1045,69L986,110Z" fill="#97c580" stroke="#97c580" stroke-width="1.51"/><path d="M859,872L963,832L911,751Z" fill="#238347" stroke="#238347" stroke-width="1.51"/><path d="M242,238L359,293L343,230Z" fill="#d8efa3" stroke="#d8efa3" stroke-width="1.51"/><path d="M1133,726L1137,656L1044,652Z" fill="#218142" stroke="#218142" stroke-width="1.51"/><path d="M1133,726L1044,652L993,785Z" fill="#1f8042" stroke="#1f8042" stroke-width="1.51"/><path d="M422,70L311,36L312,159Z" fill="#eaf7b3" stroke="#eaf7b3" stroke-width="1.51"/><path d="M611,-19L496,-19L536,31Z" fill="#d5eeb9" stroke="#d5eeb9" stroke-width="1.51"/><path d="M645,-92L611,-19L656,-27Z" fill="#c9e8b3" stroke="#c9e8b3" stroke-width="1.51"/><path d="M1139,309L1188,263L1091,241Z" fill="#76b16b" stroke="#76b16b" stroke-width="1.51"/><path d="M1075,134L1107,29L1045,69Z" fill="#94c083" stroke="#94c083" stroke-width="1.51"/><path d="M1287,436L1196,336L1164,424Z" fill="#559f5d" stroke="#559f5d" stroke-width="1.51"/><path d="M531,892L552,891L586,808Z" fill="#5a935a" stroke="#5a935a" stroke-width="1.51"/><path d="M335,751L406,679L361,671Z" fill="#80b66f" stroke="#80b66f" stroke-width="1.51"/><path d="M1196,336L1188,263L1139,309Z" fill="#6eab67" stroke="#6eab67" stroke-width="1.51"/><path d="M641,872L735,948L749,811Z" fill="#428751" stroke="#428751" stroke-width="1.51"/><path d="M531,892L586,808L468,821Z" fill="#5f985d" stroke="#5f985d" stroke-width="1.51"/><path d="M966,30L940,-30L863,-13Z" fill="#a3d39e" stroke="#a3d39e" stroke-width="1.51"/><path d="M991,-24L940,-30L966,30Z" fill="#a0ce9a" stroke="#a0ce9a" stroke-width="1.51"/><path d="M278,700L335,751L361,671Z" fill="#83b672" stroke="#83b672" stroke-width="1.51"/><path d="M1137,656L1183,605L1086,612Z" fill="#268847" stroke="#268847" stroke-width="1.51"/><path d="M1175,465L1287,436L1164,424Z" fill="#4a9b5a" stroke="#4a9b5a" stroke-width="1.51"/><path d="M312,159L242,238L343,230Z" fill="#e0f3a8" stroke="#e0f3a8" stroke-width="1.51"/><path d="M454,843L531,892L468,821Z" fill="#64995f" stroke="#64995f" stroke-width="1.51"/><path d="M250,544L278,700L361,563Z" fill="#92c87e" stroke="#92c87e" stroke-width="1.51"/><path d="M233,370L207,475L321,381Z" fill="#bce398" stroke="#bce398" stroke-width="1.51"/><path d="M193,381L207,475L233,370Z" fill="#c0e49b" stroke="#c0e49b" stroke-width="1.51"/><path d="M242,238L212,306L359,293Z" fill="#d6efa3" stroke="#d6efa3" stroke-width="1.51"/><path d="M940,-30L846,-79L863,-13Z" fill="#a8d7a1" stroke="#a8d7a1" stroke-width="1.51"/><path d="M754,-98L645,-92L656,-27Z" fill="#c2e5b0" stroke="#c2e5b0" stroke-width="1.51"/><path d="M754,-98L656,-27L772,-52Z" fill="#bce2ae" stroke="#bce2ae" stroke-width="1.51"/><path d="M963,832L991,856L993,785Z" fill="#1d7a41" stroke="#1d7a41" stroke-width="1.51"/><path d="M1137,656L1210,629L1183,605Z" fill="#228445" stroke="#228445" stroke-width="1.51"/><path d="M913,955L991,856L963,832Z" fill="#1d743f" stroke="#1d743f" stroke-width="1.51"/><path d="M846,-79L754,-98L772,-52Z" fill="#b4dda8" stroke="#b4dda8" stroke-width="1.51"/><path d="M186,607L278,700L250,544Z" fill="#95c880" stroke="#95c880" stroke-width="1.51"/><path d="M1129,812L1133,726L993,785Z" fill="#16773d" stroke="#16773d" stroke-width="1.51"/><path d="M1107,29L991,-24L1045,69Z" fill="#98c48f" stroke="#98c48f" stroke-width="1.51"/><path d="M1045,69L991,-24L966,30Z" fill="#9cca92" stroke="#9cca92" stroke-width="1.51"/><path d="M940,-30L972,-144L846,-79Z" fill="#a4d39e" stroke="#a4d39e" stroke-width="1.51"/><path d="M171,331L193,381L233,370Z" fill="#cbeaa0" stroke="#cbeaa0" stroke-width="1.51"/><path d="M642,947L641,872L552,891Z" fill="#4f8955" stroke="#4f8955" stroke-width="1.51"/><path d="M642,947L735,948L641,872Z" fill="#468552" stroke="#468552" stroke-width="1.51"/><path d="M859,872L913,955L963,832Z" fill="#217742" stroke="#217742" stroke-width="1.51"/><path d="M558,994L642,947L552,891Z" fill="#538b57" stroke="#538b57" stroke-width="1.51"/><path d="M207,475L179,485L250,544Z" fill="#acda90" stroke="#acda90" stroke-width="1.51"/><path d="M193,381L179,485L207,475Z" fill="#b8e198" stroke="#b8e198" stroke-width="1.51"/><path d="M1183,605L1245,553L1175,465Z" fill="#30904e" stroke="#30904e" stroke-width="1.51"/><path d="M1175,756L1210,629L1137,656Z" fill="#1b7c3f" stroke="#1b7c3f" stroke-width="1.51"/><path d="M496,-19L367,2L422,70Z" fill="#e3f4bc" stroke="#e3f4bc" stroke-width="1.51"/><path d="M312,159L225,114L242,238Z" fill="#e9f7ae" stroke="#e9f7ae" stroke-width="1.51"/><path d="M407,-57L367,2L496,-19Z" fill="#e5f4c0" stroke="#e5f4c0" stroke-width="1.51"/><path d="M1210,629L1245,553L1183,605Z" fill="#248747" stroke="#248747" stroke-width="1.51"/><path d="M1279,226L1195,156L1188,263Z" fill="#7cae6d" stroke="#7cae6d" stroke-width="1.51"/><path d="M1188,263L1195,156L1091,241Z" fill="#7fb36f" stroke="#7fb36f" stroke-width="1.51"/><path d="M1281,302L1188,263L1196,336Z" fill="#6ba766" stroke="#6ba766" stroke-width="1.51"/><path d="M193,381L110,425L179,485Z" fill="#bee39d" stroke="#bee39d" stroke-width="1.51"/><path d="M212,306L171,331L233,370Z" fill="#d1eca2" stroke="#d1eca2" stroke-width="1.51"/><path d="M142,210L171,331L212,306Z" fill="#ddf1a9" stroke="#ddf1a9" stroke-width="1.51"/><path d="M142,210L212,306L242,238Z" fill="#e2f4aa" stroke="#e2f4aa" stroke-width="1.51"/><path d="M1180,97L1107,29L1075,134Z" fill="#91bd7f" stroke="#91bd7f" stroke-width="1.51"/><path d="M425,1004L558,994L531,892Z" fill="#5e8f5b" stroke="#5e8f5b" stroke-width="1.51"/><path d="M531,892L558,994L552,891Z" fill="#598d58" stroke="#598d58" stroke-width="1.51"/><path d="M335,751L364,848L429,742Z" fill="#77aa6a" stroke="#77aa6a" stroke-width="1.51"/><path d="M281,823L364,848L335,751Z" fill="#79a86b" stroke="#79a86b" stroke-width="1.51"/><path d="M367,2L311,36L422,70Z" fill="#eaf7bc" stroke="#eaf7bc" stroke-width="1.51"/><path d="M851,991L879,961L859,872Z" fill="#287945" stroke="#287945" stroke-width="1.51"/><path d="M642,947L715,978L735,948Z" fill="#428451" stroke="#428451" stroke-width="1.51"/><path d="M558,994L715,978L642,947Z" fill="#4c8753" stroke="#4c8753" stroke-width="1.51"/><path d="M278,700L281,823L335,751Z" fill="#80b070" stroke="#80b070" stroke-width="1.51"/><path d="M179,485L186,607L250,544Z" fill="#a3d58a" stroke="#a3d58a" stroke-width="1.51"/><path d="M311,36L278,62L312,159Z" fill="#eef9b7" stroke="#eef9b7" stroke-width="1.51"/><path d="M311,36L207,6L278,62Z" fill="#f3fac3" stroke="#f3fac3" stroke-width="1.51"/><path d="M367,2L310,-75L311,36Z" fill="#eff9c6" stroke="#eff9c6" stroke-width="1.51"/><path d="M466,-123L407,-57L496,-19Z" fill="#e1f3be" stroke="#e1f3be" stroke-width="1.51"/><path d="M1195,156L1180,97L1075,134Z" fill="#8cb877" stroke="#8cb877" stroke-width="1.51"/><path d="M1129,812L1175,756L1133,726Z" fill="#12743c" stroke="#12743c" stroke-width="1.51"/><path d="M851,991L859,872L735,948Z" fill="#317c48" stroke="#317c48" stroke-width="1.51"/><path d="M1133,726L1175,756L1137,656Z" fill="#19793e" stroke="#19793e" stroke-width="1.51"/><path d="M1340,496L1285,510L1390,589Z" fill="#2d844a" stroke="#2d844a" stroke-width="1.51"/><path d="M1129,812L993,785L991,856Z" fill="#17753e" stroke="#17753e" stroke-width="1.51"/><path d="M1190,822L1129,812L1133,914Z" fill="#0c6636" stroke="#0c6636" stroke-width="1.51"/><path d="M879,961L913,955L859,872Z" fill="#257744" stroke="#257744" stroke-width="1.51"/><path d="M1285,510L1287,436L1175,465Z" fill="#409455" stroke="#409455" stroke-width="1.51"/><path d="M1195,156L1259,52L1180,97Z" fill="#8ab478" stroke="#8ab478" stroke-width="1.51"/><path d="M1285,510L1175,465L1245,553Z" fill="#379151" stroke="#379151" stroke-width="1.51"/><path d="M278,62L225,114L312,159Z" fill="#f0f9b3" stroke="#f0f9b3" stroke-width="1.51"/><path d="M715,978L761,995L735,948Z" fill="#3c814e" stroke="#3c814e" stroke-width="1.51"/><path d="M879,961L851,991L913,955Z" fill="#257744" stroke="#257744" stroke-width="1.51"/><path d="M1313,668L1245,553L1210,629Z" fill="#1e8043" stroke="#1e8043" stroke-width="1.51"/><path d="M1287,436L1281,302L1196,336Z" fill="#5da05f" stroke="#5da05f" stroke-width="1.51"/><path d="M645,-92L598,-150L611,-19Z" fill="#cce9b4" stroke="#cce9b4" stroke-width="1.51"/><path d="M754,-98L598,-150L645,-92Z" fill="#c5e6b1" stroke="#c5e6b1" stroke-width="1.51"/><path d="M972,-144L598,-150L754,-98Z" fill="#b6dfa9" stroke="#b6dfa9" stroke-width="1.51"/><path d="M761,995L851,991L735,948Z" fill="#357e4b" stroke="#357e4b" stroke-width="1.51"/><path d="M404,949L531,892L454,843Z" fill="#64925e" stroke="#64925e" stroke-width="1.51"/><path d="M715,978L535,1034L761,995Z" fill="#468552" stroke="#468552" stroke-width="1.51"/><path d="M211,746L281,823L278,700Z" fill="#83b272" stroke="#83b272" stroke-width="1.51"/><path d="M407,-57L310,-75L367,2Z" fill="#ecf8c4" stroke="#ecf8c4" stroke-width="1.51"/><path d="M105,97L160,168L225,114Z" fill="#f6fcba" stroke="#f6fcba" stroke-width="1.51"/><path d="M598,-150L466,-123L496,-19Z" fill="#d9efba" stroke="#d9efba" stroke-width="1.51"/><path d="M404,949L454,843L364,848Z" fill="#6b9861" stroke="#6b9861" stroke-width="1.51"/><path d="M1281,302L1279,226L1188,263Z" fill="#71a868" stroke="#71a868" stroke-width="1.51"/><path d="M1293,168L1279,226L1376,226Z" fill="#78a56a" stroke="#78a56a" stroke-width="1.51"/><path d="M167,679L211,746L278,700Z" fill="#8cba77" stroke="#8cba77" stroke-width="1.51"/><path d="M179,485L93,608L186,607Z" fill="#a1d38d" stroke="#a1d38d" stroke-width="1.51"/><path d="M186,607L167,679L278,700Z" fill="#92c07b" stroke="#92c07b" stroke-width="1.51"/><path d="M171,331L110,425L193,381Z" fill="#c9e9a2" stroke="#c9e9a2" stroke-width="1.51"/><path d="M82,328L110,425L171,331Z" fill="#ceeba8" stroke="#ceeba8" stroke-width="1.51"/><path d="M91,632L167,679L186,607Z" fill="#98c684" stroke="#98c684" stroke-width="1.51"/><path d="M225,114L160,168L242,238Z" fill="#edf8b1" stroke="#edf8b1" stroke-width="1.51"/><path d="M207,6L225,114L278,62Z" fill="#f5fbc0" stroke="#f5fbc0" stroke-width="1.51"/><path d="M466,-123L429,-119L407,-57Z" fill="#e3f4bf" stroke="#e3f4bf" stroke-width="1.51"/><path d="M152,-144L429,-119L466,-123Z" fill="#edf8c4" stroke="#edf8c4" stroke-width="1.51"/><path d="M160,168L142,210L242,238Z" fill="#ebf7b0" stroke="#ebf7b0" stroke-width="1.51"/><path d="M300,940L404,949L364,848Z" fill="#709663" stroke="#709663" stroke-width="1.51"/><path d="M846,-79L972,-144L754,-98Z" fill="#abd9a3" stroke="#abd9a3" stroke-width="1.51"/><path d="M991,-24L972,-144L940,-30Z" fill="#a0ce9a" stroke="#a0ce9a" stroke-width="1.51"/><path d="M997,-143L972,-144L991,-24Z" fill="#9ecc98" stroke="#9ecc98" stroke-width="1.51"/><path d="M1128,-42L991,-24L1107,29Z" fill="#97c291" stroke="#97c291" stroke-width="1.51"/><path d="M1205,-29L1128,-42L1107,29Z" fill="#92bb8e" stroke="#92bb8e" stroke-width="1.51"/><path d="M1205,-29L1107,29L1180,97Z" fill="#90b987" stroke="#90b987" stroke-width="1.51"/><path d="M1175,756L1265,716L1210,629Z" fill="#15763d" stroke="#15763d" stroke-width="1.51"/><path d="M1129,812L1190,822L1175,756Z" fill="#0b6e39" stroke="#0b6e39" stroke-width="1.51"/><path d="M1133,914L1129,812L991,856Z" fill="#126938" stroke="#126938" stroke-width="1.51"/><path d="M1030,957L991,856L913,955Z" fill="#1b6e3d" stroke="#1b6e3d" stroke-width="1.51"/><path d="M984,1042L1030,957L913,955Z" fill="#1b6e3d" stroke="#1b6e3d" stroke-width="1.51"/><path d="M1190,822L1265,716L1175,756Z" fill="#0b6f39" stroke="#0b6f39" stroke-width="1.51"/><path d="M1110,-139L997,-143L991,-24Z" fill="#9ac695" stroke="#9ac695" stroke-width="1.51"/><path d="M1287,436L1352,444L1281,302Z" fill="#529659" stroke="#529659" stroke-width="1.51"/><path d="M1285,510L1340,496L1287,436Z" fill="#3c8e52" stroke="#3c8e52" stroke-width="1.51"/><path d="M1390,589L1285,510L1245,553Z" fill="#288549" stroke="#288549" stroke-width="1.51"/><path d="M1279,226L1293,168L1195,156Z" fill="#7ead6e" stroke="#7ead6e" stroke-width="1.51"/><path d="M1376,226L1279,226L1281,302Z" fill="#70a366" stroke="#70a366" stroke-width="1.51"/><path d="M167,679L173,746L211,746Z" fill="#8db979" stroke="#8db979" stroke-width="1.51"/><path d="M211,746L166,839L281,823Z" fill="#82ac71" stroke="#82ac71" stroke-width="1.51"/><path d="M346,974L425,1004L404,949Z" fill="#6b9561" stroke="#6b9561" stroke-width="1.51"/><path d="M99,721L173,746L167,679Z" fill="#8fba7d" stroke="#8fba7d" stroke-width="1.51"/><path d="M429,-119L310,-75L407,-57Z" fill="#eaf7c2" stroke="#eaf7c2" stroke-width="1.51"/><path d="M69,261L171,331L142,210Z" fill="#e2f3b0" stroke="#e2f3b0" stroke-width="1.51"/><path d="M69,261L82,328L171,331Z" fill="#daf0af" stroke="#daf0af" stroke-width="1.51"/><path d="M65,479L93,608L179,485Z" fill="#abd997" stroke="#abd997" stroke-width="1.51"/><path d="M1340,496L1352,444L1287,436Z" fill="#408e53" stroke="#408e53" stroke-width="1.51"/><path d="M558,994L535,1034L715,978Z" fill="#518a56" stroke="#518a56" stroke-width="1.51"/><path d="M761,995L972,1045L851,991Z" fill="#287945" stroke="#287945" stroke-width="1.51"/><path d="M425,1004L535,1034L558,994Z" fill="#5e8f5b" stroke="#5e8f5b" stroke-width="1.51"/><path d="M1370,649L1313,668L1379,732Z" fill="#126b39" stroke="#126b39" stroke-width="1.51"/><path d="M1030,957L1133,914L991,856Z" fill="#146638" stroke="#146638" stroke-width="1.51"/><path d="M1265,716L1313,668L1210,629Z" fill="#15763d" stroke="#15763d" stroke-width="1.51"/><path d="M1340,496L1434,495L1352,444Z" fill="#3a864f" stroke="#3a864f" stroke-width="1.51"/><path d="M1313,668L1265,716L1379,732Z" fill="#0e6c39" stroke="#0e6c39" stroke-width="1.51"/><path d="M65,479L179,485L110,425Z" fill="#b8e09e" stroke="#b8e09e" stroke-width="1.51"/><path d="M-10,346L65,479L110,425Z" fill="#c3e6ab" stroke="#c3e6ab" stroke-width="1.51"/><path d="M404,949L425,1004L531,892Z" fill="#64925e" stroke="#64925e" stroke-width="1.51"/><path d="M270,905L364,848L281,823Z" fill="#77a069" stroke="#77a069" stroke-width="1.51"/><path d="M62,114L69,261L142,210Z" fill="#eef8bc" stroke="#eef8bc" stroke-width="1.51"/><path d="M265,-81L207,6L311,36Z" fill="#f5fbca" stroke="#f5fbca" stroke-width="1.51"/><path d="M1128,-42L1110,-139L991,-24Z" fill="#97c291" stroke="#97c291" stroke-width="1.51"/><path d="M1293,168L1259,52L1195,156Z" fill="#86b174" stroke="#86b174" stroke-width="1.51"/><path d="M-39,564L91,632L93,608Z" fill="#9fce94" stroke="#9fce94" stroke-width="1.51"/><path d="M93,608L91,632L186,607Z" fill="#9cca8a" stroke="#9cca8a" stroke-width="1.51"/><path d="M166,839L211,746L173,746Z" fill="#87b275" stroke="#87b275" stroke-width="1.51"/><path d="M166,839L270,905L281,823Z" fill="#7ca26c" stroke="#7ca26c" stroke-width="1.51"/><path d="M82,328L-10,346L110,425Z" fill="#cfebaf" stroke="#cfebaf" stroke-width="1.51"/><path d="M62,114L142,210L160,168Z" fill="#f2fabb" stroke="#f2fabb" stroke-width="1.51"/><path d="M1259,52L1205,-29L1180,97Z" fill="#8cb584" stroke="#8cb584" stroke-width="1.51"/><path d="M270,905L300,940L364,848Z" fill="#739965" stroke="#739965" stroke-width="1.51"/><path d="M300,940L346,974L404,949Z" fill="#709763" stroke="#709763" stroke-width="1.51"/><path d="M310,-75L265,-81L311,36Z" fill="#f2fac8" stroke="#f2fac8" stroke-width="1.51"/><path d="M429,-119L265,-81L310,-75Z" fill="#eef9c5" stroke="#eef9c5" stroke-width="1.51"/><path d="M207,6L168,22L225,114Z" fill="#f8fdc5" stroke="#f8fdc5" stroke-width="1.51"/><path d="M194,-34L168,22L207,6Z" fill="#fafdcf" stroke="#fafdcf" stroke-width="1.51"/><path d="M1140,1035L1228,946L1133,914Z" fill="#095d33" stroke="#095d33" stroke-width="1.51"/><path d="M851,991L972,1045L913,955Z" fill="#207541" stroke="#207541" stroke-width="1.51"/><path d="M535,1034L972,1045L761,995Z" fill="#39804c" stroke="#39804c" stroke-width="1.51"/><path d="M972,1045L984,1042L913,955Z" fill="#1d703e" stroke="#1d703e" stroke-width="1.51"/><path d="M1172,-119L1110,-139L1128,-42Z" fill="#92bc8e" stroke="#92bc8e" stroke-width="1.51"/><path d="M997,-143L1110,-139L972,-144Z" fill="#9bc795" stroke="#9bc795" stroke-width="1.51"/><path d="M91,632L99,721L167,679Z" fill="#93bf83" stroke="#93bf83" stroke-width="1.51"/><path d="M270,905L265,1002L300,940Z" fill="#769967" stroke="#769967" stroke-width="1.51"/><path d="M87,844L99,721L-34,740Z" fill="#8bb485" stroke="#8bb485" stroke-width="1.51"/><path d="M168,22L105,97L225,114Z" fill="#f9fcc2" stroke="#f9fcc2" stroke-width="1.51"/><path d="M-7,77L62,114L105,97Z" fill="#fbfdcc" stroke="#fbfdcc" stroke-width="1.51"/><path d="M265,-81L194,-34L207,6Z" fill="#f8fccd" stroke="#f8fccd" stroke-width="1.51"/><path d="M1293,168L1380,51L1259,52Z" fill="#85ab77" stroke="#85ab77" stroke-width="1.51"/><path d="M1259,52L1252,-31L1205,-29Z" fill="#8cb48a" stroke="#8cb48a" stroke-width="1.51"/><path d="M1392,288L1376,226L1281,302Z" fill="#6b9c62" stroke="#6b9c62" stroke-width="1.51"/><path d="M87,844L166,839L173,746Z" fill="#86ad77" stroke="#86ad77" stroke-width="1.51"/><path d="M1426,372L1281,302L1352,444Z" fill="#55945a" stroke="#55945a" stroke-width="1.51"/><path d="M1426,372L1392,288L1281,302Z" fill="#60975e" stroke="#60975e" stroke-width="1.51"/><path d="M1313,668L1390,589L1245,553Z" fill="#1e7c43" stroke="#1e7c43" stroke-width="1.51"/><path d="M1379,732L1265,716L1315,867Z" fill="#036435" stroke="#036435" stroke-width="1.51"/><path d="M1370,649L1390,589L1313,668Z" fill="#19733d" stroke="#19733d" stroke-width="1.51"/><path d="M1205,-29L1172,-119L1128,-42Z" fill="#90b98d" stroke="#90b98d" stroke-width="1.51"/><path d="M1381,-8L1252,-31L1259,52Z" fill="#88ae87" stroke="#88ae87" stroke-width="1.51"/><path d="M1252,-31L1172,-119L1205,-29Z" fill="#8eb68b" stroke="#8eb68b" stroke-width="1.51"/><path d="M69,261L20,264L82,328Z" fill="#e0f2b7" stroke="#e0f2b7" stroke-width="1.51"/><path d="M65,479L-39,564L93,608Z" fill="#a7d69c" stroke="#a7d69c" stroke-width="1.51"/><path d="M62,114L20,264L69,261Z" fill="#edf8bf" stroke="#edf8bf" stroke-width="1.51"/><path d="M1434,495L1426,372L1352,444Z" fill="#438852" stroke="#438852" stroke-width="1.51"/><path d="M1430,198L1395,129L1376,226Z" fill="#769c68" stroke="#769c68" stroke-width="1.51"/><path d="M105,97L62,114L160,168Z" fill="#f7fcc0" stroke="#f7fcc0" stroke-width="1.51"/><path d="M109,-37L105,97L168,22Z" fill="#fcfdd0" stroke="#fcfdd0" stroke-width="1.51"/><path d="M1463,591L1434,495L1390,589Z" fill="#237843" stroke="#237843" stroke-width="1.51"/><path d="M1390,589L1434,495L1340,496Z" fill="#2d8049" stroke="#2d8049" stroke-width="1.51"/><path d="M20,264L-10,346L82,328Z" fill="#dbf0b8" stroke="#dbf0b8" stroke-width="1.51"/><path d="M-91,302L-10,346L20,264Z" fill="#ddf1bc" stroke="#ddf1bc" stroke-width="1.51"/><path d="M1463,675L1463,591L1390,589Z" fill="#1a6d3c" stroke="#1a6d3c" stroke-width="1.51"/><path d="M1315,867L1265,716L1190,822Z" fill="#006636" stroke="#006636" stroke-width="1.51"/><path d="M1228,946L1190,822L1133,914Z" fill="#085d33" stroke="#085d33" stroke-width="1.51"/><path d="M300,940L265,1002L346,974Z" fill="#749866" stroke="#749866" stroke-width="1.51"/><path d="M346,974L265,1002L425,1004Z" fill="#709763" stroke="#709763" stroke-width="1.51"/><path d="M425,1004L265,1002L535,1034Z" fill="#699460" stroke="#699460" stroke-width="1.51"/><path d="M186,1012L265,1002L270,905Z" fill="#799a69" stroke="#799a69" stroke-width="1.51"/><path d="M1140,1035L1133,914L1030,957Z" fill="#106235" stroke="#106235" stroke-width="1.51"/><path d="M1376,226L1395,129L1293,168Z" fill="#7aa26b" stroke="#7aa26b" stroke-width="1.51"/><path d="M1430,198L1376,226L1392,288Z" fill="#6f9a63" stroke="#6f9a63" stroke-width="1.51"/><path d="M1461,289L1392,288L1426,372Z" fill="#5e915b" stroke="#5e915b" stroke-width="1.51"/><path d="M1461,289L1430,198L1392,288Z" fill="#6a9560" stroke="#6a9560" stroke-width="1.51"/><path d="M984,1042L1140,1035L1030,957Z" fill="#146638" stroke="#146638" stroke-width="1.51"/><path d="M1166,1046L1140,1035L984,1042Z" fill="#106235" stroke="#106235" stroke-width="1.51"/><path d="M1228,946L1315,867L1190,822Z" fill="#015b32" stroke="#015b32" stroke-width="1.51"/><path d="M1289,962L1315,867L1228,946Z" fill="#00552f" stroke="#00552f" stroke-width="1.51"/><path d="M166,839L135,903L270,905Z" fill="#7e9f6d" stroke="#7e9f6d" stroke-width="1.51"/><path d="M87,844L135,903L166,839Z" fill="#82a475" stroke="#82a475" stroke-width="1.51"/><path d="M87,844L173,746L99,721Z" fill="#8ab37d" stroke="#8ab37d" stroke-width="1.51"/><path d="M152,-144L109,-37L194,-34Z" fill="#fcfdd3" stroke="#fcfdd3" stroke-width="1.51"/><path d="M194,-34L109,-37L168,22Z" fill="#fcfdd2" stroke="#fcfdd2" stroke-width="1.51"/><path d="M-34,740L99,721L91,632Z" fill="#93bd89" stroke="#93bd89" stroke-width="1.51"/><path d="M1523,385L1461,289L1426,372Z" fill="#578d58" stroke="#578d58" stroke-width="1.51"/><path d="M1252,-31L1300,-131L1172,-119Z" fill="#8cb48a" stroke="#8cb48a" stroke-width="1.51"/><path d="M1395,129L1380,51L1293,168Z" fill="#81a570" stroke="#81a570" stroke-width="1.51"/><path d="M1421,43L1380,51L1395,129Z" fill="#81a175" stroke="#81a175" stroke-width="1.51"/><path d="M1381,-8L1380,51L1421,43Z" fill="#83a37e" stroke="#83a37e" stroke-width="1.51"/><path d="M-10,346L-50,442L65,479Z" fill="#c3e6b1" stroke="#c3e6b1" stroke-width="1.51"/><path d="M-124,409L-50,442L-10,346Z" fill="#c9e8b3" stroke="#c9e8b3" stroke-width="1.51"/><path d="M-35,166L20,264L62,114Z" fill="#f2fac7" stroke="#f2fac7" stroke-width="1.51"/><path d="M-53,482L-39,564L65,479Z" fill="#b1dca6" stroke="#b1dca6" stroke-width="1.51"/><path d="M1463,675L1390,589L1370,649Z" fill="#176d3b" stroke="#176d3b" stroke-width="1.51"/><path d="M1434,495L1523,385L1426,372Z" fill="#478652" stroke="#478652" stroke-width="1.51"/><path d="M1463,675L1370,649L1379,732Z" fill="#106637" stroke="#106637" stroke-width="1.51"/><path d="M-50,442L-53,482L65,479Z" fill="#b9e1ac" stroke="#b9e1ac" stroke-width="1.51"/><path d="M972,1045L1166,1046L984,1042Z" fill="#156739" stroke="#156739" stroke-width="1.51"/><path d="M1140,1035L1166,1046L1228,946Z" fill="#085c32" stroke="#085c32" stroke-width="1.51"/><path d="M1403,806L1379,732L1315,867Z" fill="#005b32" stroke="#005b32" stroke-width="1.51"/><path d="M1403,806L1429,739L1379,732Z" fill="#055d33" stroke="#055d33" stroke-width="1.51"/><path d="M-7,77L-35,166L62,114Z" fill="#fafdce" stroke="#fafdce" stroke-width="1.51"/><path d="M-93,524L-39,564L-53,482Z" fill="#aedaa5" stroke="#aedaa5" stroke-width="1.51"/><path d="M1349,920L1403,806L1315,867Z" fill="#00522e" stroke="#00522e" stroke-width="1.51"/><path d="M1290,1045L1289,962L1228,946Z" fill="#00552f" stroke="#00552f" stroke-width="1.51"/><path d="M1380,51L1381,-8L1259,52Z" fill="#85a880" stroke="#85a880" stroke-width="1.51"/><path d="M1421,43L1395,129L1489,144Z" fill="#7e9d6e" stroke="#7e9d6e" stroke-width="1.51"/><path d="M1429,739L1463,675L1379,732Z" fill="#0c6034" stroke="#0c6034" stroke-width="1.51"/><path d="M1524,612L1463,675L1540,715Z" fill="#136537" stroke="#136537" stroke-width="1.51"/><path d="M265,1002L186,1012L535,1034Z" fill="#729764" stroke="#729764" stroke-width="1.51"/><path d="M135,903L186,1012L270,905Z" fill="#7c9c6c" stroke="#7c9c6c" stroke-width="1.51"/><path d="M103,963L186,1012L135,903Z" fill="#7e9d71" stroke="#7e9d71" stroke-width="1.51"/><path d="M265,-81L152,-144L194,-34Z" fill="#f9fcce" stroke="#f9fcce" stroke-width="1.51"/><path d="M109,-37L-7,77L105,97Z" fill="#fcfed4" stroke="#fcfed4" stroke-width="1.51"/><path d="M429,-119L152,-144L265,-81Z" fill="#f3fac9" stroke="#f3fac9" stroke-width="1.51"/><path d="M598,-150L152,-144L466,-123Z" fill="#e7f5c1" stroke="#e7f5c1" stroke-width="1.51"/><path d="M-39,-18L-7,77L109,-37Z" fill="#ffffe1" stroke="#ffffe1" stroke-width="1.51"/><path d="M-87,547L-52,643L-39,564Z" fill="#a2d19c" stroke="#a2d19c" stroke-width="1.51"/><path d="M-39,564L-52,643L91,632Z" fill="#9fcc99" stroke="#9fcc99" stroke-width="1.51"/><path d="M87,844L103,963L135,903Z" fill="#7f9d75" stroke="#7f9d75" stroke-width="1.51"/><path d="M1489,144L1395,129L1430,198Z" fill="#789a68" stroke="#789a68" stroke-width="1.51"/><path d="M1361,-95L1300,-131L1252,-31Z" fill="#88ad87" stroke="#88ad87" stroke-width="1.51"/><path d="M1172,-119L1300,-131L1110,-139Z" fill="#8fb78c" stroke="#8fb78c" stroke-width="1.51"/><path d="M1361,-95L1252,-31L1381,-8Z" fill="#87aa86" stroke="#87aa86" stroke-width="1.51"/><path d="M-110,174L-67,211L-35,166Z" fill="#f2fac8" stroke="#f2fac8" stroke-width="1.51"/><path d="M-35,166L-67,211L20,264Z" fill="#eef8c5" stroke="#eef8c5" stroke-width="1.51"/><path d="M-93,524L-87,547L-39,564Z" fill="#a9d8a1" stroke="#a9d8a1" stroke-width="1.51"/><path d="M1289,962L1349,920L1315,867Z" fill="#00512d" stroke="#00512d" stroke-width="1.51"/><path d="M1566,454L1434,495L1463,591Z" fill="#2f7c48" stroke="#2f7c48" stroke-width="1.51"/><path d="M1566,454L1523,385L1434,495Z" fill="#408350" stroke="#408350" stroke-width="1.51"/><path d="M1569,204L1489,144L1430,198Z" fill="#759966" stroke="#759966" stroke-width="1.51"/><path d="M-93,524L-53,482L-124,409Z" fill="#b8e0ab" stroke="#b8e0ab" stroke-width="1.51"/><path d="M-67,211L-91,302L20,264Z" fill="#e6f5c1" stroke="#e6f5c1" stroke-width="1.51"/><path d="M-124,409L-53,482L-50,442Z" fill="#bee3af" stroke="#bee3af" stroke-width="1.51"/><path d="M-108,666L-34,740L-52,643Z" fill="#95c090" stroke="#95c090" stroke-width="1.51"/><path d="M-52,643L-34,740L91,632Z" fill="#97c291" stroke="#97c291" stroke-width="1.51"/><path d="M16,869L103,963L87,844Z" fill="#809e79" stroke="#809e79" stroke-width="1.51"/><path d="M1569,204L1430,198L1461,289Z" fill="#6e9662" stroke="#6e9662" stroke-width="1.51"/><path d="M1469,-57L1381,-8L1421,43Z" fill="#82a081" stroke="#82a081" stroke-width="1.51"/><path d="M1469,-57L1361,-95L1381,-8Z" fill="#83a283" stroke="#83a283" stroke-width="1.51"/><path d="M-34,740L16,869L87,844Z" fill="#87ac84" stroke="#87ac84" stroke-width="1.51"/><path d="M1463,675L1524,612L1463,591Z" fill="#186c3b" stroke="#186c3b" stroke-width="1.51"/><path d="M1540,715L1463,675L1429,739Z" fill="#0c5f34" stroke="#0c5f34" stroke-width="1.51"/><path d="M1483,814L1429,739L1403,806Z" fill="#005630" stroke="#005630" stroke-width="1.51"/><path d="M-91,302L-124,409L-10,346Z" fill="#d3edb8" stroke="#d3edb8" stroke-width="1.51"/><path d="M-93,524L-108,666L-87,547Z" fill="#a3d29d" stroke="#a3d29d" stroke-width="1.51"/><path d="M-110,174L-124,409L-91,302Z" fill="#dff2bd" stroke="#dff2bd" stroke-width="1.51"/><path d="M1566,454L1550,300L1523,385Z" fill="#508955" stroke="#508955" stroke-width="1.51"/><path d="M1523,385L1550,300L1461,289Z" fill="#5c8e5a" stroke="#5c8e5a" stroke-width="1.51"/><path d="M1478,908L1483,814L1403,806Z" fill="#004e2c" stroke="#004e2c" stroke-width="1.51"/><path d="M1289,962L1400,1029L1349,920Z" fill="#004e2c" stroke="#004e2c" stroke-width="1.51"/><path d="M1166,1046L1290,1045L1228,946Z" fill="#035931" stroke="#035931" stroke-width="1.51"/><path d="M1524,612L1566,454L1463,591Z" fill="#257743" stroke="#257743" stroke-width="1.51"/><path d="M1569,204L1519,131L1489,144Z" fill="#779a68" stroke="#779a68" stroke-width="1.51"/><path d="M1489,144L1519,131L1421,43Z" fill="#7e9c6e" stroke="#7e9c6e" stroke-width="1.51"/><path d="M-7,77L-110,174L-35,166Z" fill="#f8fccd" stroke="#f8fccd" stroke-width="1.51"/><path d="M152,-144L60,-135L109,-37Z" fill="#fdfed8" stroke="#fdfed8" stroke-width="1.51"/><path d="M-87,547L-108,666L-52,643Z" fill="#9ecb98" stroke="#9ecb98" stroke-width="1.51"/><path d="M-34,740L-79,782L16,869Z" fill="#89b089" stroke="#89b089" stroke-width="1.51"/><path d="M-124,409L-108,666L-93,524Z" fill="#acd9a3" stroke="#acd9a3" stroke-width="1.51"/><path d="M-121,28L-110,174L-7,77Z" fill="#fcfed3" stroke="#fcfed3" stroke-width="1.51"/><path d="M-67,211L-110,174L-91,302Z" fill="#ebf7c3" stroke="#ebf7c3" stroke-width="1.51"/><path d="M1524,612L1565,634L1566,454Z" fill="#217642" stroke="#217642" stroke-width="1.51"/><path d="M1478,908L1403,806L1349,920Z" fill="#004b2b" stroke="#004b2b" stroke-width="1.51"/><path d="M60,-135L-39,-18L109,-37Z" fill="#fefee0" stroke="#fefee0" stroke-width="1.51"/><path d="M-108,666L-79,782L-34,740Z" fill="#90b98d" stroke="#90b98d" stroke-width="1.51"/><path d="M16,869L51,999L103,963Z" fill="#809d7a" stroke="#809d7a" stroke-width="1.51"/><path d="M1483,814L1540,715L1429,739Z" fill="#055a31" stroke="#055a31" stroke-width="1.51"/><path d="M1540,715L1565,634L1524,612Z" fill="#156738" stroke="#156738" stroke-width="1.51"/><path d="M-40,958L51,999L16,869Z" fill="#819e80" stroke="#819e80" stroke-width="1.51"/><path d="M103,963L51,999L186,1012Z" fill="#7f9d74" stroke="#7f9d74" stroke-width="1.51"/><path d="M1550,300L1569,204L1461,289Z" fill="#68935f" stroke="#68935f" stroke-width="1.51"/><path d="M1566,454L1569,204L1550,300Z" fill="#5d8f5a" stroke="#5d8f5a" stroke-width="1.51"/><path d="M1576,836L1569,204L1566,454Z" fill="#337d4a" stroke="#337d4a" stroke-width="1.51"/><path d="M1551,27L1507,11L1519,131Z" fill="#7f9d77" stroke="#7f9d77" stroke-width="1.51"/><path d="M1519,131L1507,11L1421,43Z" fill="#7f9d76" stroke="#7f9d76" stroke-width="1.51"/><path d="M1361,-95L1570,-122L1300,-131Z" fill="#83a182" stroke="#83a182" stroke-width="1.51"/><path d="M1507,11L1469,-57L1421,43Z" fill="#819e81" stroke="#819e81" stroke-width="1.51"/><path d="M-79,782L-64,863L16,869Z" fill="#86a986" stroke="#86a986" stroke-width="1.51"/><path d="M-72,958L-64,863L-126,1046Z" fill="#819e81" stroke="#819e81" stroke-width="1.51"/><path d="M1456,1006L1478,908L1349,920Z" fill="#004629" stroke="#004629" stroke-width="1.51"/><path d="M1483,814L1576,836L1540,715Z" fill="#005630" stroke="#005630" stroke-width="1.51"/><path d="M1469,-57L1482,-77L1361,-95Z" fill="#819e81" stroke="#819e81" stroke-width="1.51"/><path d="M1507,11L1482,-77L1469,-57Z" fill="#819e81" stroke="#819e81" stroke-width="1.51"/><path d="M1570,-122L1482,-77L1507,11Z" fill="#819e81" stroke="#819e81" stroke-width="1.51"/><path d="M1290,1045L1400,1029L1289,962Z" fill="#00502d" stroke="#00502d" stroke-width="1.51"/><path d="M-114,-10L-121,28L-39,-18Z" fill="#ffffe5" stroke="#ffffe5" stroke-width="1.51"/><path d="M-39,-18L-121,28L-7,77Z" fill="#fefee0" stroke="#fefee0" stroke-width="1.51"/><path d="M-110,174L-121,28L-124,409Z" fill="#eff9c6" stroke="#eff9c6" stroke-width="1.51"/><path d="M1569,204L1551,27L1519,131Z" fill="#7d9c6c" stroke="#7d9c6c" stroke-width="1.51"/><path d="M-64,863L-40,958L16,869Z" fill="#819e81" stroke="#819e81" stroke-width="1.51"/><path d="M-112,-76L-114,-10L-39,-18Z" fill="#ffffe5" stroke="#ffffe5" stroke-width="1.51"/><path d="M60,-135L-52,-136L-39,-18Z" fill="#ffffe5" stroke="#ffffe5" stroke-width="1.51"/><path d="M152,-144L-52,-136L60,-135Z" fill="#fefedf" stroke="#fefedf" stroke-width="1.51"/><path d="M1400,1029L1456,1006L1349,920Z" fill="#00482a" stroke="#00482a" stroke-width="1.51"/><path d="M1478,908L1576,836L1483,814Z" fill="#004c2c" stroke="#004c2c" stroke-width="1.51"/><path d="M1540,715L1576,836L1565,634Z" fill="#095d33" stroke="#095d33" stroke-width="1.51"/><path d="M-64,863L-72,958L-40,958Z" fill="#819e81" stroke="#819e81" stroke-width="1.51"/><path d="M-40,958L-18,1030L51,999Z" fill="#819e81" stroke="#819e81" stroke-width="1.51"/><path d="M-126,1046L-64,863L-79,782Z" fill="#819e81" stroke="#819e81" stroke-width="1.51"/><path d="M-72,958L-18,1030L-40,958Z" fill="#819e81" stroke="#819e81" stroke-width="1.51"/><path d="M51,999L-18,1030L186,1012Z" fill="#809d78" stroke="#809d78" stroke-width="1.51"/><path d="M186,1012L-18,1030L535,1034Z" fill="#799a69" stroke="#799a69" stroke-width="1.51"/><path d="M535,1034L-126,1046L972,1045Z" fill="#64915d" stroke="#64915d" stroke-width="1.51"/><path d="M1565,634L1576,836L1566,454Z" fill="#16693a" stroke="#16693a" stroke-width="1.51"/><path d="M1571,947L1576,836L1478,908Z" fill="#004529" stroke="#004529" stroke-width="1.51"/><path d="M-52,-136L-112,-76L-39,-18Z" fill="#ffffe5" stroke="#ffffe5" stroke-width="1.51"/><path d="M-114,-10L-112,-76L-121,28Z" fill="#ffffe5" stroke="#ffffe5" stroke-width="1.51"/><path d="M1456,1006L1571,947L1478,908Z" fill="#004529" stroke="#004529" stroke-width="1.51"/><path d="M1482,-77L1570,-122L1361,-95Z" fill="#819e81" stroke="#819e81" stroke-width="1.51"/><path d="M1300,-131L1570,-122L1110,-139Z" fill="#87ab86" stroke="#87ab86" stroke-width="1.51"/><path d="M1551,27L1570,-122L1507,11Z" fill="#819e81" stroke="#819e81" stroke-width="1.51"/><path d="M1569,204L1570,-122L1551,27Z" fill="#809d7a" stroke="#809d7a" stroke-width="1.51"/><path d="M1576,836L1570,-122L1569,204Z" fill="#60905c" stroke="#60905c" stroke-width="1.51"/><path d="M1456,1006L1547,1048L1571,947Z" fill="#004529" stroke="#004529" stroke-width="1.51"/><path d="M1400,1029L1547,1048L1456,1006Z" fill="#004529" stroke="#004529" stroke-width="1.51"/><path d="M1290,1045L1547,1048L1400,1029Z" fill="#00472a" stroke="#00472a" stroke-width="1.51"/><path d="M1166,1046L1547,1048L1290,1045Z" fill="#004f2d" stroke="#004f2d" stroke-width="1.51"/><path d="M-126,1046L1547,1048L1166,1046Z" fill="#287945" stroke="#287945" stroke-width="1.51"/><path d="M-72,958L-126,1046L-18,1030Z" fill="#819e81" stroke="#819e81" stroke-width="1.51"/><path d="M-18,1030L-126,1046L535,1034Z" fill="#7e9d72" stroke="#7e9d72" stroke-width="1.51"/><path d="M972,1045L-126,1046L1166,1046Z" fill="#468552" stroke="#468552" stroke-width="1.51"/><path d="M-108,666L-126,1046L-79,782Z" fill="#87aa86" stroke="#87aa86" stroke-width="1.51"/><path d="M-124,409L-126,1046L-108,666Z" fill="#93bd8f" stroke="#93bd8f" stroke-width="1.51"/></svg>